# xmcd
#
# Track frame offsets:
#	150
#	9332
#	22540
#	35822
#	48862
#	60317
#	76547
#	90122
#	103955
#	114727
#	125130
#	140790
#
# Disc length: 2103 seconds
#
# Revision: 1
# Processed by: cddbd v1.5.1PL0 Copyright (c) Steve Scherf et al.
# Submitted via: EasyCDDAExtractor 5.1.0
#
DISCID=8c08350c
DTITLE=Lena Horne - Some of the Best
DYEAR=1997
DGENRE=Pop
TTITLE0=Just One of Those Things
TTITLE1=You don't have to know the language
TTITLE2=Love Me or Leave Me
TTITLE3=Summertime
TTITLE4=Deed I Do
TTITLE5=Out of This World
TTITLE6=Softly as I Leave You
TTITLE7=More Than You Know
TTITLE8=My Blue Heaven
TTITLE9=The Lady is a Tramp
TTITLE10=Lost in the Stars
TTITLE11=Stormy Weather
EXTD=
EXTT0=
EXTT1=
EXTT2=
EXTT3=
EXTT4=
EXTT5=
EXTT6=
EXTT7=
EXTT8=
EXTT9=
EXTT10=
EXTT11=
PLAYORDER=
